HIERARCHY
ROOT mixamorig:Hips
{
	OFFSET 0.000000 201.639420 0.000000
	CHANNELS 6 Xposition Yposition Zposition Xrotation Yrotation Zrotation
	JOINT mixamorig:Spine
	{
		OFFSET 0.006200 19.524994 -2.481800
		CHANNELS 3 Xrotation Yrotation Zrotation
		JOINT mixamorig:Spine1
		{
			OFFSET -0.000900 22.835007 -2.825400
			CHANNELS 3 Xrotation Yrotation Zrotation
			JOINT mixamorig:Spine2
			{
				OFFSET -0.020600 26.552490 -3.193300
				CHANNELS 3 Xrotation Yrotation Zrotation
				JOINT mixamorig:Neck
				{
					OFFSET -0.060000 30.701813 1.352200
					CHANNELS 3 Xrotation Yrotation Zrotation
					JOINT mixamorig:Head
					{
						OFFSET -0.087200 22.547607 3.670900
						CHANNELS 3 Xrotation Yrotation Zrotation
						JOINT mixamorig:HeadTop_End
						{
							OFFSET -0.830600 40.355194 7.893500
							CHANNELS 3 Xrotation Yrotation Zrotation
							End Site
							{
								OFFSET 0.000000 30.592346 0.000000
							}
						}
						JOINT mixamorig:RightEye
						{
							OFFSET -6.302100 18.118591 16.197100
							CHANNELS 3 Xrotation Yrotation Zrotation
							End Site
							{
								OFFSET 0.000000 30.592346 0.000000
							}
						}
						JOINT mixamorig:LeftEye
						{
							OFFSET 6.741500 18.382690 16.401899
							CHANNELS 3 Xrotation Yrotation Zrotation
							End Site
							{
								OFFSET 0.000000 30.592346 0.000000
							}
						}
					}
				}
				JOINT mixamorig:LeftShoulder
				{
					OFFSET 11.924900 18.230499 1.425400
					CHANNELS 3 Xrotation Yrotation Zrotation
					JOINT mixamorig:LeftArm
					{
						OFFSET 25.435989 -0.697632 -5.229300
						CHANNELS 3 Xrotation Yrotation Zrotation
						JOINT mixamorig:LeftForeArm
						{
							OFFSET 54.684776 0.000000 0.000000
							CHANNELS 3 Xrotation Yrotation Zrotation
							JOINT mixamorig:LeftHand
							{
								OFFSET 55.098175 0.000000 0.000000
								CHANNELS 3 Xrotation Yrotation Zrotation
								JOINT mixamorig:LeftHandMiddle1
								{
									OFFSET 23.369751 0.000000 0.000000
									CHANNELS 3 Xrotation Yrotation Zrotation
									JOINT mixamorig:LeftHandMiddle2
									{
										OFFSET 6.378677 0.000000 0.000000
										CHANNELS 3 Xrotation Yrotation Zrotation
										JOINT mixamorig:LeftHandMiddle3
										{
											OFFSET 6.148331 0.000000 0.000000
											CHANNELS 3 Xrotation Yrotation Zrotation
											JOINT mixamorig:LeftHandMiddle4
											{
												OFFSET 6.582504 0.000000 0.000000
												CHANNELS 3 Xrotation Yrotation Zrotation
												End Site
												{
													OFFSET -1.168900 6.395691 1.028606
												}
											}
										}
									}
								}
								JOINT mixamorig:LeftHandThumb1
								{
									OFFSET 7.235672 -3.848206 5.434273
									CHANNELS 3 Xrotation Yrotation Zrotation
									JOINT mixamorig:LeftHandThumb2
									{
										OFFSET 6.568451 -3.792297 3.792300
										CHANNELS 3 Xrotation Yrotation Zrotation
										JOINT mixamorig:LeftHandThumb3
										{
											OFFSET 6.063080 -3.500519 3.500518
											CHANNELS 3 Xrotation Yrotation Zrotation
											JOINT mixamorig:LeftHandThumb4
											{
												OFFSET 4.793182 -2.767334 2.767349
												CHANNELS 3 Xrotation Yrotation Zrotation
												End Site
												{
													OFFSET 0.101639 6.054260 1.275483
												}
											}
										}
									}
								}
								JOINT mixamorig:LeftHandIndex1
								{
									OFFSET 23.101074 -0.309540 4.992809
									CHANNELS 3 Xrotation Yrotation Zrotation
									JOINT mixamorig:LeftHandIndex2
									{
										OFFSET 6.226883 0.000000 0.000000
										CHANNELS 3 Xrotation Yrotation Zrotation
										JOINT mixamorig:LeftHandIndex3
										{
											OFFSET 6.094330 0.000000 0.000000
											CHANNELS 3 Xrotation Yrotation Zrotation
											JOINT mixamorig:LeftHandIndex4
											{
												OFFSET 5.482605 0.000000 0.000000
												CHANNELS 3 Xrotation Yrotation Zrotation
												End Site
												{
													OFFSET -1.427902 5.233032 0.797164
												}
											}
										}
									}
								}
								JOINT mixamorig:LeftHandRing1
								{
									OFFSET 22.299240 0.021149 -3.964172
									CHANNELS 3 Xrotation Yrotation Zrotation
									JOINT mixamorig:LeftHandRing2
									{
										OFFSET 6.321869 0.000000 0.000000
										CHANNELS 3 Xrotation Yrotation Zrotation
										JOINT mixamorig:LeftHandRing3
										{
											OFFSET 5.899796 0.000000 0.000000
											CHANNELS 3 Xrotation Yrotation Zrotation
											JOINT mixamorig:LeftHandRing4
											{
												OFFSET 6.517899 0.000000 0.000000
												CHANNELS 3 Xrotation Yrotation Zrotation
												End Site
												{
													OFFSET -1.637299 6.232208 0.980890
												}
											}
										}
									}
								}
								JOINT mixamorig:LeftHandPinky1
								{
									OFFSET 20.463791 -0.302338 -8.562233
									CHANNELS 3 Xrotation Yrotation Zrotation
									JOINT mixamorig:LeftHandPinky2
									{
										OFFSET 6.908646 0.000000 0.000000
										CHANNELS 3 Xrotation Yrotation Zrotation
										JOINT mixamorig:LeftHandPinky3
										{
											OFFSET 4.622849 0.000000 0.000000
											CHANNELS 3 Xrotation Yrotation Zrotation
											JOINT mixamorig:LeftHandPinky4
											{
												OFFSET 5.216080 0.000000 0.000000
												CHANNELS 3 Xrotation Yrotation Zrotation
												End Site
												{
													OFFSET -0.606308 5.116241 0.814926
												}
											}
										}
									}
								}
							}
						}
					}
				}
				JOINT mixamorig:RightShoulder
				{
					OFFSET -12.001300 18.284088 1.348900
					CHANNELS 3 Xrotation Yrotation Zrotation
					JOINT mixamorig:RightArm
					{
						OFFSET -25.308500 -0.751312 -5.164599
						CHANNELS 3 Xrotation Yrotation Zrotation
						JOINT mixamorig:RightForeArm
						{
							OFFSET -54.684429 0.000000 0.000000
							CHANNELS 3 Xrotation Yrotation Zrotation
							JOINT mixamorig:RightHand
							{
								OFFSET -55.150291 0.000000 0.000000
								CHANNELS 3 Xrotation Yrotation Zrotation
								JOINT mixamorig:RightHandMiddle1
								{
									OFFSET -23.317566 0.000000 0.000000
									CHANNELS 3 Xrotation Yrotation Zrotation
									JOINT mixamorig:RightHandMiddle2
									{
										OFFSET -6.378403 0.000000 0.000000
										CHANNELS 3 Xrotation Yrotation Zrotation
										JOINT mixamorig:RightHandMiddle3
										{
											OFFSET -6.148193 0.000000 0.000000
											CHANNELS 3 Xrotation Yrotation Zrotation
											JOINT mixamorig:RightHandMiddle4
											{
												OFFSET -6.583389 0.000000 0.000000
												CHANNELS 3 Xrotation Yrotation Zrotation
												End Site
												{
													OFFSET 1.171692 6.395905 1.029786
												}
											}
										}
									}
								}
								JOINT mixamorig:RightHandThumb1
								{
									OFFSET -7.190521 -3.860474 5.435846
									CHANNELS 3 Xrotation Yrotation Zrotation
									JOINT mixamorig:RightHandThumb2
									{
										OFFSET -6.567429 -3.791718 3.791708
										CHANNELS 3 Xrotation Yrotation Zrotation
										JOINT mixamorig:RightHandThumb3
										{
											OFFSET -6.062469 -3.500153 3.500166
											CHANNELS 3 Xrotation Yrotation Zrotation
											JOINT mixamorig:RightHandThumb4
											{
												OFFSET -4.792618 -2.767029 2.767022
												CHANNELS 3 Xrotation Yrotation Zrotation
												End Site
												{
													OFFSET -0.100327 6.053253 1.276754
												}
											}
										}
									}
								}
								JOINT mixamorig:RightHandIndex1
								{
									OFFSET -23.048981 -0.310791 4.992554
									CHANNELS 3 Xrotation Yrotation Zrotation
									JOINT mixamorig:RightHandIndex2
									{
										OFFSET -6.227539 0.000000 0.000000
										CHANNELS 3 Xrotation Yrotation Zrotation
										JOINT mixamorig:RightHandIndex3
										{
											OFFSET -6.095047 0.000000 0.000000
											CHANNELS 3 Xrotation Yrotation Zrotation
											JOINT mixamorig:RightHandIndex4
											{
												OFFSET -5.484772 0.000000 0.000000
												CHANNELS 3 Xrotation Yrotation Zrotation
												End Site
												{
													OFFSET 1.420593 5.237305 0.797056
												}
											}
										}
									}
								}
								JOINT mixamorig:RightHandRing1
								{
									OFFSET -22.246323 0.020569 -3.963762
									CHANNELS 3 Xrotation Yrotation Zrotation
									JOINT mixamorig:RightHandRing2
									{
										OFFSET -6.322128 0.000000 0.000000
										CHANNELS 3 Xrotation Yrotation Zrotation
										JOINT mixamorig:RightHandRing3
										{
											OFFSET -5.900024 0.000000 0.000000
											CHANNELS 3 Xrotation Yrotation Zrotation
											JOINT mixamorig:RightHandRing4
											{
												OFFSET -6.518356 0.000000 0.000000
												CHANNELS 3 Xrotation Yrotation Zrotation
												End Site
												{
													OFFSET 1.636398 6.232697 0.982186
												}
											}
										}
									}
								}
								JOINT mixamorig:RightHandPinky1
								{
									OFFSET -20.411011 -0.303314 -8.561701
									CHANNELS 3 Xrotation Yrotation Zrotation
									JOINT mixamorig:RightHandPinky2
									{
										OFFSET -6.907349 0.000000 0.000000
										CHANNELS 3 Xrotation Yrotation Zrotation
										JOINT mixamorig:RightHandPinky3
										{
											OFFSET -4.623840 0.000000 0.000000
											CHANNELS 3 Xrotation Yrotation Zrotation
											JOINT mixamorig:RightHandPinky4
											{
												OFFSET -5.218353 0.000000 0.000000
												CHANNELS 3 Xrotation Yrotation Zrotation
												End Site
												{
													OFFSET 0.602097 5.118835 0.816273
												}
											}
										}
									}
								}
							}
						}
					}
				}
			}
		}
	}
	JOINT mixamorig:LeftUpLeg
	{
		OFFSET 18.168400 -13.561905 -0.039000
		CHANNELS 3 Xrotation Yrotation Zrotation
		JOINT mixamorig:LeftLeg
		{
			OFFSET 0.577358 -80.825211 -3.695000
			CHANNELS 3 Xrotation Yrotation Zrotation
			JOINT mixamorig:LeftFoot
			{
				OFFSET -0.577356 -83.370262 -6.520700
				CHANNELS 3 Xrotation Yrotation Zrotation
				JOINT mixamorig:LeftToeBase
				{
					OFFSET 0.750401 -20.798306 25.135401
					CHANNELS 3 Xrotation Yrotation Zrotation
					JOINT mixamorig:LeftToe_End
					{
						OFFSET -0.000500 0.001200 19.917799
						CHANNELS 3 Xrotation Yrotation Zrotation
						End Site
						{
							OFFSET 0.000000 19.917805 0.000000
						}
					}
				}
			}
		}
	}
	JOINT mixamorig:RightUpLeg
	{
		OFFSET -18.162500 -13.585098 -0.041000
		CHANNELS 3 Xrotation Yrotation Zrotation
		JOINT mixamorig:RightLeg
		{
			OFFSET -0.595024 -80.945297 -3.631900
			CHANNELS 3 Xrotation Yrotation Zrotation
			JOINT mixamorig:RightFoot
			{
				OFFSET 0.595024 -83.218193 -6.561200
				CHANNELS 3 Xrotation Yrotation Zrotation
				JOINT mixamorig:RightToeBase
				{
					OFFSET -0.753601 -20.807106 25.115000
					CHANNELS 3 Xrotation Yrotation Zrotation
					JOINT mixamorig:RightToe_End
					{
						OFFSET 0.000299 0.001700 19.918200
						CHANNELS 3 Xrotation Yrotation Zrotation
						End Site
						{
							OFFSET 0.000000 19.918203 0.000000
						}
					}
				}
			}
		}
	}
}
MOTION
Frames: 6
Frame Time: 0.033333
6.384841 176.016830 31.297890 -5.636264 -58.983731 2.788407 11.375551 7.168929 -2.327094 4.728728 1.087160 -2.671212 4.750134 1.129133 -2.629089 -0.415946 15.290014 2.614147 2.781155 26.289089 -5.874410 0.000000 -0.000000 0.000001 0.000000 -0.000000 0.000001 0.000000 -0.000000 0.000001 0.141692 10.248149 -10.118236 -37.350063 -6.103396 -73.873482 0.000047 -107.349906 0.000036 16.861557 1.854452 -3.775728 -0.461473 3.841587 -39.722693 6.450750 5.820347 -95.892864 2.182885 4.561566 -51.127712 0.000001 -0.000000 -0.000001 -6.141213 -11.690803 -6.761699 9.914098 42.595529 3.409840 -0.422799 8.108100 27.509109 0.000000 -0.000001 0.000000 0.255314 3.378214 -45.814358 5.654084 5.847747 -88.067462 2.162138 4.544810 -50.866348 -0.000005 0.000003 0.000000 0.469732 4.966832 -39.799447 8.181046 5.368621 -113.503018 3.200485 5.218116 -63.022968 0.000001 0.000000 -0.000000 -3.762425 9.063700 -45.253825 5.342530 5.828998 -85.005324 8.716856 5.103342 -119.369153 -0.000002 -0.000001 0.000000 2.549849 10.114197 -7.925423 -50.105219 29.942569 86.135529 -0.000126 103.906138 0.000117 -5.748735 17.838982 8.646329 -0.761624 -2.932911 39.031072 5.133908 -4.632774 95.881663 1.739751 -3.631696 51.181350 0.000001 -0.000003 -0.000001 -7.341105 13.749655 7.412322 9.855779 -44.489083 -3.903263 -0.115794 -14.513076 -28.973878 0.000000 -0.000001 -0.000003 -0.124379 -2.384788 45.108881 4.500574 -4.654514 88.071171 1.723232 -3.618376 50.920129 0.000001 0.000001 -0.000001 0.154759 -4.068827 39.122664 6.509727 -4.273607 113.462850 2.549574 -4.153896 63.067337 -0.000000 -0.000005 0.000000 -4.198869 -8.025510 44.637762 4.252906 -4.639626 85.014791 6.935967 -4.062623 119.322326 0.000000 0.000002 -0.000001 -38.419175 6.602186 18.895542 64.155338 -4.257284 2.064060 -8.299037 -15.067927 -20.962050 -4.442322 -0.025831 1.460144 0.000001 0.000001 0.000000 -30.292207 -3.111562 -35.481395 53.387091 -6.403987 -5.313904 -11.171172 -4.267185 18.438654 -4.019116 -0.000027 -0.000006 -0.000000 0.000000 -0.000000 
6.323785 178.527573 28.443365 -5.589089 -58.450676 2.125408 11.469408 7.098625 -2.203763 4.825783 0.828283 -2.399576 4.857157 0.845219 -2.360185 -0.270484 15.328584 2.693851 3.185413 26.350245 -6.536087 0.000001 -0.000000 -0.000000 0.000001 -0.000000 -0.000000 0.000001 -0.000000 -0.000000 0.356270 8.375059 -9.303016 -38.909696 -3.818636 -71.475580 0.000115 -107.876397 0.000119 16.435643 2.033986 -5.571374 -0.461477 3.841587 -39.722700 6.450748 5.820347 -95.892871 2.182883 4.561558 -51.127716 -0.000001 0.000003 0.000003 -6.141215 -11.690805 -6.761696 9.914090 42.595525 3.409838 -0.422795 8.108106 27.509109 0.000006 0.000000 -0.000000 0.255314 3.378216 -45.814354 5.654092 5.847748 -88.067462 2.162139 4.544809 -50.866348 -0.000001 -0.000005 -0.000000 0.469728 4.966837 -39.799444 8.181043 5.368621 -113.503011 3.200485 5.218111 -63.022961 0.000000 -0.000001 -0.000002 -3.762420 9.063694 -45.253828 5.342530 5.828998 -85.005324 8.716856 5.103336 -119.369153 -0.000002 0.000000 0.000001 2.492157 9.751598 -7.691286 -49.961591 29.535609 86.928678 0.000014 104.301155 -0.000017 -5.627113 17.763215 8.482982 -0.761624 -2.932906 39.031075 5.133904 -4.632769 95.881670 1.739744 -3.631695 51.181350 0.000001 -0.000001 -0.000003 -7.341102 13.749657 7.412324 9.855774 -44.489076 -3.903261 -0.115796 -14.513078 -28.973884 0.000001 0.000001 -0.000000 -0.124374 -2.384784 45.108885 4.500571 -4.654515 88.071178 1.723233 -3.618377 50.920129 0.000002 -0.000002 -0.000003 0.154761 -4.068827 39.122661 6.509729 -4.273605 113.462857 2.549578 -4.153897 63.067337 -0.000001 -0.000005 0.000000 -4.198870 -8.025508 44.637762 4.252909 -4.639626 85.014791 6.935964 -4.062621 119.322326 -0.000002 -0.000001 -0.000000 -37.354441 7.579246 18.049764 64.433689 -4.463394 0.761650 -8.650562 -14.605116 -21.140976 -5.227676 -0.096333 2.797487 0.000000 0.000000 0.000001 -29.391557 -3.588176 -33.059598 51.795971 -7.161595 -5.394096 -8.717565 -4.922172 18.392207 -4.567433 -0.000187 0.125388 -0.000000 0.000000 0.000001 
6.510273 181.034424 26.447561 -5.288179 -58.068144 1.357218 11.405508 6.996145 -2.070727 4.750921 0.534568 -2.092103 4.789932 0.532008 -2.058864 -0.021378 15.389746 2.843781 3.454931 26.440291 -6.786730 0.000001 0.000000 -0.000001 0.000001 0.000000 -0.000001 0.000001 0.000000 -0.000001 0.608503 6.464736 -8.605286 -40.722561 -1.421797 -69.197582 0.000013 -109.716669 0.000007 15.919730 2.106865 -6.675599 -0.461477 3.841587 -39.722693 6.450749 5.820346 -95.892871 2.182884 4.561568 -51.127705 -0.000000 -0.000001 0.000000 -6.141214 -11.690804 -6.761696 9.914088 42.595525 3.409837 -0.422800 8.108101 27.509111 -0.000002 -0.000000 -0.000001 0.255312 3.378217 -45.814351 5.654082 5.847745 -88.067455 2.162140 4.544811 -50.866348 -0.000002 -0.000000 0.000000 0.469729 4.966838 -39.799444 8.181047 5.368623 -113.503018 3.200484 5.218113 -63.022968 -0.000001 0.000000 0.000001 -3.762425 9.063698 -45.253825 5.342530 5.828996 -85.005317 8.716859 5.103339 -119.369153 -0.000002 -0.000001 0.000000 2.453103 9.490331 -7.427390 -49.730703 29.109768 87.035359 -0.000031 104.530711 0.000056 -5.942242 17.619615 8.324162 -0.761624 -2.932910 39.031068 5.133908 -4.632770 95.881663 1.739750 -3.631697 51.181350 0.000001 0.000002 0.000001 -7.341104 13.749655 7.412324 9.855782 -44.489079 -3.903261 -0.115795 -14.513076 -28.973874 -0.000002 0.000001 -0.000001 -0.124378 -2.384786 45.108878 4.500573 -4.654514 88.071171 1.723233 -3.618375 50.920122 -0.000000 -0.000003 -0.000002 0.154759 -4.068826 39.122664 6.509730 -4.273605 113.462850 2.549576 -4.153902 63.067337 0.000000 0.000002 0.000003 -4.198869 -8.025510 44.637766 4.252913 -4.639628 85.014784 6.935963 -4.062626 119.322326 0.000002 0.000002 -0.000001 -35.923476 8.997197 17.459232 62.987622 -4.661227 -0.389371 -8.877355 -13.642568 -21.151689 -6.723541 -0.250461 4.466150 0.000000 0.000001 -0.000000 -28.741190 -4.328010 -31.310035 49.804285 -7.427705 -4.999251 -5.138670 -4.748832 18.244100 -6.022416 -0.025870 1.545933 0.000000 -0.000000 -0.000000 
6.907651 183.192535 25.182920 -4.708238 -58.278138 0.621061 11.174738 6.899389 -2.034402 4.452087 0.347553 -1.761199 4.493552 0.334557 -1.733234 0.217153 15.514317 3.065385 3.830332 26.784228 -6.909547 -0.000000 0.000000 -0.000000 -0.000000 0.000000 -0.000000 -0.000000 0.000000 -0.000000 0.691051 5.596823 -7.947698 -42.801466 0.244751 -67.896506 0.000109 -111.823222 0.000110 14.739314 1.475962 -6.392584 -0.461475 3.841587 -39.722693 6.450747 5.820347 -95.892871 2.182884 4.561566 -51.127712 -0.000002 -0.000001 0.000001 -6.141211 -11.690805 -6.761699 9.914097 42.595525 3.409839 -0.422800 8.108106 27.509109 -0.000001 -0.000000 -0.000001 0.255315 3.378215 -45.814351 5.654090 5.847748 -88.067462 2.162137 4.544809 -50.866348 -0.000000 0.000000 0.000001 0.469732 4.966837 -39.799451 8.181049 5.368621 -113.503018 3.200484 5.218116 -63.022961 -0.000000 -0.000001 0.000001 -3.762423 9.063695 -45.253825 5.342525 5.828997 -85.005324 8.716858 5.103344 -119.369153 -0.000005 0.000000 -0.000000 2.484100 9.584413 -6.902358 -49.811695 28.886103 86.340961 -0.000108 104.393431 0.000095 -6.796180 17.410752 8.280954 -0.761625 -2.932910 39.031068 5.133909 -4.632770 95.881663 1.739746 -3.631697 51.181346 -0.000001 0.000003 -0.000001 -7.341105 13.749657 7.412323 9.855782 -44.489083 -3.903260 -0.115803 -14.513076 -28.973871 -0.000003 -0.000001 -0.000004 -0.124379 -2.384786 45.108881 4.500574 -4.654518 88.071171 1.723234 -3.618380 50.920126 0.000002 0.000002 -0.000000 0.154760 -4.068827 39.122664 6.509727 -4.273609 113.462850 2.549575 -4.153905 63.067337 -0.000001 -0.000000 0.000004 -4.198869 -8.025507 44.637759 4.252907 -4.639627 85.014791 6.935961 -4.062620 119.322312 0.000003 -0.000001 -0.000000 -33.896532 10.639191 16.789273 60.048537 -4.789001 -0.991517 -9.472319 -11.663777 -20.517844 -9.836638 -0.280039 4.674797 0.000001 -0.000000 -0.000000 -29.027624 -4.915900 -30.386388 48.322373 -7.577082 -4.153621 -0.623163 -2.298783 17.553868 -8.195636 -0.149980 3.693802 0.000000 0.000000 -0.000000 
7.382955 184.701584 24.381138 -3.782220 -59.263427 0.206899 10.808922 6.825457 -2.252936 3.929386 0.320361 -1.483325 3.969812 0.299167 -1.457834 0.378368 15.720935 3.312196 4.252234 27.519899 -7.125326 0.000000 0.000000 -0.000000 0.000000 0.000000 -0.000000 0.000000 0.000000 -0.000000 0.534765 5.981837 -7.210307 -44.868172 1.036448 -67.429704 0.000073 -113.621078 0.000097 12.931417 0.373153 -5.140175 -0.461476 3.841590 -39.722697 6.450751 5.820347 -95.892871 2.182885 4.561563 -51.127716 -0.000001 0.000001 0.000002 -6.141211 -11.690803 -6.761701 9.914098 42.595525 3.409838 -0.422797 8.108107 27.509104 0.000000 -0.000002 0.000000 0.255314 3.378215 -45.814354 5.654089 5.847747 -88.067462 2.162137 4.544811 -50.866345 0.000001 -0.000003 -0.000002 0.469731 4.966836 -39.799444 8.181049 5.368620 -113.503018 3.200484 5.218111 -63.022968 -0.000001 -0.000001 -0.000002 -3.762421 9.063695 -45.253825 5.342534 5.828997 -85.005324 8.716856 5.103339 -119.369153 -0.000001 0.000000 0.000001 2.595538 10.159533 -6.161174 -50.412697 28.937469 85.243466 0.000192 103.894445 -0.000208 -7.968193 17.169537 8.323708 -0.761625 -2.932911 39.031068 5.133904 -4.632775 95.881663 1.739752 -3.631698 51.181350 0.000000 0.000004 0.000000 -7.341104 13.749657 7.412327 9.855779 -44.489072 -3.903267 -0.115797 -14.513080 -28.973881 -0.000002 0.000001 -0.000000 -0.124379 -2.384787 45.108885 4.500577 -4.654517 88.071171 1.723231 -3.618374 50.920126 0.000002 -0.000003 0.000001 0.154759 -4.068826 39.122664 6.509727 -4.273603 113.462850 2.549575 -4.153899 63.067337 -0.000000 0.000000 0.000002 -4.198869 -8.025508 44.637762 4.252913 -4.639631 85.014784 6.935965 -4.062623 119.322312 -0.000002 -0.000000 0.000001 -31.506129 12.192164 15.767246 56.305132 -4.178222 -0.784266 -11.385391 -9.384262 -16.111566 -10.784842 -0.174024 3.709838 -0.000000 -0.000001 0.000000 -30.728212 -5.286976 -29.361020 48.448212 -4.505751 -4.532555 2.765818 -0.862210 17.249463 -9.024941 -0.184787 4.097254 -0.000000 0.000000 0.000000 
7.877506 184.861069 23.770298 -2.771947 -60.757941 -0.038102 10.389724 6.820956 -2.529399 3.297583 0.410345 -1.315740 3.336502 0.379764 -1.291040 0.426530 15.956005 3.582155 4.541207 28.495913 -7.459107 0.000001 -0.000001 0.000001 0.000001 -0.000001 0.000001 0.000001 -0.000001 0.000001 0.286028 6.702548 -6.348662 -46.774351 1.488152 -66.760967 -0.000149 -114.894683 -0.000151 10.847413 -0.658892 -4.029354 -0.461476 3.841581 -39.722693 6.450746 5.820348 -95.892871 2.182885 4.561567 -51.127712 0.000001 0.000001 0.000004 -6.141216 -11.690806 -6.761693 9.914099 42.595529 3.409843 -0.422794 8.108105 27.509111 0.000002 0.000004 0.000001 0.255314 3.378212 -45.814351 5.654091 5.847748 -88.067455 2.162139 4.544810 -50.866348 -0.000000 -0.000000 -0.000002 0.469729 4.966833 -39.799444 8.181045 5.368621 -113.503011 3.200484 5.218112 -63.022968 -0.000003 0.000001 0.000004 -3.762425 9.063693 -45.253818 5.342528 5.828997 -85.005317 8.716856 5.103340 -119.369167 -0.000005 -0.000001 -0.000000 2.721116 10.919575 -5.484839 -51.533149 29.143352 84.509241 0.000109 103.182910 -0.000130 -8.993503 16.970488 8.345336 -0.761626 -2.932912 39.031072 5.133907 -4.632772 95.881663 1.739748 -3.631695 51.181346 0.000002 -0.000001 -0.000000 -7.341106 13.749654 7.412324 9.855780 -44.489083 -3.903265 -0.115796 -14.513073 -28.973874 -0.000002 0.000000 -0.000001 -0.124378 -2.384788 45.108881 4.500574 -4.654512 88.071178 1.723231 -3.618377 50.920129 0.000002 -0.000001 -0.000001 0.154756 -4.068826 39.122664 6.509725 -4.273613 113.462850 2.549575 -4.153901 63.067344 -0.000003 -0.000000 0.000004 -4.198869 -8.025512 44.637762 4.252910 -4.639628 85.014784 6.935964 -4.062622 119.322326 -0.000002 0.000000 -0.000001 -29.378901 13.298536 14.718552 53.229956 -3.261252 0.121210 -16.056081 -7.198147 -10.094293 -7.824874 -0.000016 0.000006 0.000000 -0.000002 0.000000 -33.249422 -5.314223 -27.991766 50.266402 1.062550 -6.318143 4.181399 -0.513727 17.816236 -8.201513 -0.195096 4.224597 -0.000000 -0.000000 -0.000000 
